<svg width="484" height="103" viewBox="0 0 484 103" fill="none" xmlns="http://www.w3.org/2000/svg">
<path d="M482.921 3.50348V2.50348H481.921H404.01H403.01V3.50348V24.8265V25.8265H404.01H428.434V99.8671V100.867H429.434H456.224H457.224V99.8671V25.8265H481.921H482.921V24.8265V3.50348Z" stroke="#BE9342" stroke-opacity="0.14" stroke-width="2"/>
<path d="M339.276 3.50348V2.50348H338.276H311.622H310.622V3.50348V59.4081C310.622 68.4657 312.378 76.2065 315.943 82.5858L315.943 82.5858L315.949 82.5955C319.594 88.951 324.561 93.7819 330.842 97.063L330.85 97.0671L330.857 97.071C337.21 100.247 344.383 101.824 352.354 101.824C360.326 101.824 367.586 100.247 374.114 97.0761L374.12 97.0735C380.762 93.7993 386.008 88.9741 389.843 82.6143L389.846 82.6088C393.691 76.1373 395.59 68.3893 395.59 59.4081V3.50348V2.50348H394.59H367.8H366.8V3.50348V59.4081C366.8 64.3469 365.567 68.0955 363.22 70.7779L363.219 70.7796C361.003 73.323 357.629 74.6737 352.901 74.6737C348.178 74.6737 344.805 73.3255 342.59 70.7867C340.427 68.2034 339.276 64.4573 339.276 59.4081V3.50348Z" stroke="#BE9342" stroke-opacity="0.14" stroke-width="2"/>
<path d="M225.275 95.4066L225.283 95.4111C233.002 99.6886 241.462 101.824 250.645 101.824C259.828 101.824 268.288 99.6886 276.007 95.4111L276.015 95.4066C283.731 91.0372 289.827 85.0341 294.291 77.4091L294.293 77.4046C298.763 69.6763 300.989 60.981 300.989 51.3436C300.989 41.7073 298.763 33.056 294.292 25.4168C289.829 17.7005 283.731 11.6943 276.009 7.41442C268.379 3.1342 259.917 1 250.645 1C241.462 1 233.002 3.13537 225.283 7.4129C217.562 11.6924 211.419 17.6975 206.864 25.4117L206.863 25.4149C202.391 33.0545 200.165 41.7065 200.165 51.3436C200.165 60.981 202.391 69.6763 206.86 77.4046L206.864 77.4108L206.867 77.4169C211.421 85.0376 217.561 91.0383 225.275 95.4066ZM266.03 68.5814L266.03 68.5814L266.022 68.5899C262.323 72.805 257.239 74.9471 250.645 74.9471C243.95 74.9471 238.822 72.8441 235.128 68.7227C231.412 64.4859 229.502 58.7302 229.502 51.3436C229.502 43.8589 231.415 38.1089 235.124 33.9683L235.124 33.9684L235.131 33.9607C238.827 29.7486 243.955 27.6035 250.645 27.6035C257.239 27.6035 262.323 29.7456 266.022 33.9607L266.03 33.9688L266.037 33.9768C269.833 38.1177 271.788 43.8646 271.788 51.3436C271.788 58.6321 269.837 64.3418 266.03 68.5814Z" stroke="#BE9342" stroke-opacity="0.14" stroke-width="2"/>
<path d="M111.743 99.8671V100.867H112.743H160.446C170.793 100.867 178.977 98.5117 184.865 93.6684C190.775 88.8066 193.704 82.0827 193.704 73.6234C193.704 67.8492 191.948 62.7126 188.44 58.2518C185.637 54.5194 182.006 51.8702 177.576 50.3032C181.292 48.7686 184.372 46.4518 186.794 43.3488C189.96 39.3182 191.517 34.3525 191.517 28.517C191.517 20.3201 188.579 13.8619 182.658 9.27613C176.866 4.71976 168.92 2.50348 158.943 2.50348H112.743H111.743V3.50348V99.8671ZM161.83 63.8438L161.839 63.8523L161.849 63.8605C163.399 65.1784 164.23 67.1033 164.23 69.7962C164.23 72.4159 163.457 74.2146 162.059 75.3856C160.628 76.585 158.372 77.2707 155.115 77.2707H140.533V61.7749H154.979C158.114 61.7749 160.345 62.5155 161.83 63.8438ZM153.065 40.7756H140.533V25.8265H153.065C156.318 25.8265 158.572 26.5223 160.003 27.7407C161.403 28.9329 162.18 30.7673 162.18 33.4377C162.18 36.0065 161.41 37.7695 160.015 38.9195C158.583 40.0999 156.324 40.7756 153.065 40.7756Z" stroke="#BE9342" stroke-opacity="0.14" stroke-width="2"/>
<path d="M31.1573 100.867H31.8801L32.1068 100.181L37.0741 85.1482H69.8001L74.7674 100.181L74.9942 100.867H75.717H104.011H105.438L104.951 99.5258L69.9593 3.16216L69.7201 2.50348H69.0193H38.1283H37.4285L37.1888 3.16099L2.06048 99.5246L1.57109 100.867H3H31.1573ZM44.5674 62.6453L53.4434 35.662L62.4378 62.6453H44.5674Z" stroke="#BE9342" stroke-opacity="0.14" stroke-width="2"/>
</svg>
