<svg width="311" height="124" viewBox="0 0 311 124" fill="none" xmlns="http://www.w3.org/2000/svg">
<path d="M284.894 29.1187C283.203 27.1005 281.1 25.4221 278.598 24.0829C275.129 22.1842 271.073 21.254 266.464 21.254C261.019 21.254 256.044 22.6791 251.561 25.5318L251.561 25.5317L251.554 25.5363C247.145 28.394 243.655 32.4655 241.073 37.7093L241.073 37.7093L241.068 37.7205C238.558 42.9828 237.32 49.1016 237.32 56.0499C237.32 62.9987 238.558 69.1542 241.065 74.4917L241.069 74.5L241.073 74.5083C243.655 79.7521 247.145 83.8236 251.554 86.6814L251.561 86.6858C256.044 89.5385 261.019 90.9636 266.464 90.9636C271.073 90.9636 275.129 90.0333 278.598 88.1345C281.1 86.7953 283.203 85.117 284.894 83.0989V88.4328C284.894 92.701 283.938 95.7155 282.204 97.6583C280.488 99.5795 277.858 100.621 274.118 100.621C271.26 100.621 269.027 100.057 267.347 99.0071C265.684 97.9679 264.672 96.5436 264.261 94.6924L264.087 93.9094H263.284H240.558H239.447L239.563 95.0136C240.453 103.506 244.07 110.277 250.422 115.245C256.769 120.209 265.172 122.64 275.531 122.64C283.27 122.64 289.742 121.125 294.886 118.023C300.07 114.944 303.901 110.795 306.345 105.582C308.771 100.486 309.974 94.7628 309.974 88.4328V23.0783V22.0783H308.974H285.894H284.894V23.0783V29.1187ZM281.631 46.7238L281.636 46.73L281.642 46.7361C283.774 48.9391 284.894 52.0016 284.894 56.0499C284.894 60.1826 283.771 63.2818 281.642 65.4815L281.636 65.4876L281.631 65.4938C279.546 67.7223 276.985 68.8274 273.882 68.8274C270.696 68.8274 268.101 67.719 266.022 65.4995C263.954 63.2148 262.871 60.1021 262.871 56.0499C262.871 51.9064 263.961 48.851 266.005 46.7357L266.011 46.7298L266.017 46.7238C268.096 44.5005 270.694 43.3902 273.882 43.3902C276.985 43.3902 279.546 44.4953 281.631 46.7238Z" stroke="#BE9342" stroke-opacity="0.14" stroke-width="2"/>
<path d="M169.711 86.7256L169.716 86.7285C175.134 89.5588 181.223 90.9636 187.96 90.9636C194.698 90.9636 200.787 89.5588 206.205 86.7285C211.63 83.8945 215.89 79.8378 218.968 74.5728C222.132 69.2182 223.698 63.033 223.698 56.0499C223.698 49.0683 222.132 42.9204 218.966 37.6415C215.889 32.3789 211.63 28.3238 206.207 25.4904C200.865 22.6582 194.814 21.254 188.078 21.254C181.341 21.254 175.252 22.6588 169.834 25.4891L169.834 25.4891L169.828 25.492C164.484 28.3262 160.229 32.3801 157.075 37.6365L157.075 37.6365L157.069 37.6463C153.983 42.9247 152.458 49.0706 152.458 56.0499C152.458 63.1054 153.982 69.2912 157.069 74.5713C160.145 79.8332 164.364 83.8902 169.711 86.7256ZM195.226 65.7421L195.224 65.7435C193.298 67.8841 190.901 68.9451 187.96 68.9451C185.021 68.9451 182.671 67.8854 180.826 65.7575C179.002 63.6521 178.009 60.471 178.009 56.0499C178.009 51.7208 179.035 48.5821 180.932 46.4741C182.864 44.3275 185.224 43.2725 188.078 43.2725C190.932 43.2725 193.293 44.3275 195.224 46.4741L195.231 46.4808L195.237 46.4875C197.204 48.5958 198.265 51.7292 198.265 56.0499C198.265 60.3681 197.205 63.5502 195.226 65.7421Z" stroke="#BE9342" stroke-opacity="0.14" stroke-width="2"/>
<path d="M125.082 2V1H124.082H101.002H100.002V2V89.1394V90.1394H101.002H124.082H125.082V89.1394V2Z" stroke="#BE9342" stroke-opacity="0.14" stroke-width="2"/>
<path d="M1 90.1394V89.1394V6.12149V5.12149H2H41.8015C50.4161 5.12149 57.2952 7.03488 62.3175 10.9855C67.4565 14.9654 70.0031 20.5718 70.0031 27.6708C70.0031 32.7242 68.6543 37.034 65.904 40.5347C65.9038 40.5349 65.9036 40.5351 65.9035 40.5353L65.1172 39.9174C62.9662 42.6734 60.182 44.6812 56.7648 45.9407L1 90.1394ZM1 90.1394H2H43.0968C52.0305 90.1394 59.1162 88.1058 64.2216 83.9062C69.3496 79.688 71.8872 73.8538 71.8872 66.5303C71.8872 61.526 70.3648 57.0709 67.3233 53.2033C64.9627 50.0594 61.9237 47.8019 58.2336 46.4299L1 90.1394ZM44.1964 58.2083L44.2058 58.2168L44.2155 58.225C45.5135 59.3283 46.2183 60.944 46.2183 63.2331C46.2183 65.4616 45.5618 66.9668 44.3976 67.9422C43.1995 68.946 41.2937 69.534 38.5043 69.534H26.0802V56.4612H38.3866C41.0676 56.4612 42.9515 57.0945 44.1964 58.2083ZM36.738 38.0931H26.0802V25.4914H36.738C39.5243 25.4914 41.4275 26.0879 42.6252 27.1075C43.7921 28.1009 44.4519 29.6372 44.4519 31.91C44.4519 34.0939 43.7989 35.5682 42.6374 36.5257C41.4388 37.5137 39.5304 38.0931 36.738 38.0931Z" stroke="#BE9342" stroke-opacity="0.14" stroke-width="2"/>
</svg>
