<svg width="722" height="144" viewBox="0 0 722 144" fill="none" xmlns="http://www.w3.org/2000/svg">
<path d="M718.924 27.2761L719.524 25.8811H718.005H688.12H687.416L687.179 26.5437L672.258 68.165L656.81 26.5332L656.568 25.8811H655.872H625.57H624.054L624.651 27.2748L656.446 101.509L638.006 141.555L637.353 142.973H638.914H668.521H669.18L669.44 142.368L718.924 27.2761Z" stroke="#BE9342" stroke-opacity="0.14" stroke-width="2"/>
<path d="M568.019 29.219C564.369 31.3938 561.166 34.1979 558.411 37.6227V26.8811V25.8811H557.411H530.167H529.167V26.8811V104.86V105.86H530.167H557.411H558.411V104.86V70.8052C558.411 65.1925 559.817 61.5317 562.348 59.4906C564.963 57.3815 569.094 56.2371 574.925 56.2371H582.57H583.57V55.2371V26.1861V25.1861H582.57C577.383 25.1861 572.527 26.5334 568.019 29.219Z" stroke="#BE9342" stroke-opacity="0.14" stroke-width="2"/>
<path d="M486.75 72.3611H487.628L487.742 71.4904C488.025 69.3166 488.167 67.142 488.167 64.9671C488.167 56.8575 486.469 49.7774 483.033 43.7631C479.605 37.6694 474.833 32.9922 468.732 29.751C462.637 26.513 455.661 24.9081 447.83 24.9081C439.904 24.9081 432.833 26.5606 426.645 29.8926L426.645 29.8926L426.639 29.8957C420.54 33.2312 415.772 38.0013 412.346 44.1857C408.912 50.2926 407.215 57.51 407.215 65.8011C407.215 74.094 408.912 81.3558 412.344 87.5526L412.344 87.5526L412.35 87.5628C415.868 93.743 420.681 98.5108 426.778 101.846L426.784 101.849C432.97 105.18 439.994 106.833 447.83 106.833C454.353 106.833 460.334 105.603 465.759 103.129C471.169 100.661 475.649 97.282 479.182 92.9861C482.803 88.6028 485.236 83.6413 486.475 78.1128L486.748 76.8941H485.499H456.448H455.817L455.546 77.4634C454.639 79.3622 453.458 80.7328 452.024 81.6345C450.589 82.5363 448.836 83.0101 446.718 83.0101C443.713 83.0101 441.287 82.0769 439.364 80.2449C437.716 78.5129 436.649 75.9254 436.27 72.3611H486.75ZM455.373 51.1247L455.382 51.1326L455.391 51.1403C457.133 52.5922 458.13 54.5653 458.33 57.1561H436.559C437.247 54.4068 438.456 52.3847 440.127 51.004L440.137 50.996L440.146 50.9877C442.064 49.3204 444.55 48.4531 447.691 48.4531C450.818 48.4531 453.355 49.3588 455.373 51.1247Z" stroke="#BE9342" stroke-opacity="0.14" stroke-width="2"/>
<path d="M366.215 2V1H365.215H337.971H336.971V2V104.86V105.86H337.971H365.215H366.215V104.86V2Z" stroke="#BE9342" stroke-opacity="0.14" stroke-width="2"/>
<path d="M295.971 2V1H294.971H267.727H266.727V2V104.86V105.86H267.727H294.971H295.971V104.86V2Z" stroke="#BE9342" stroke-opacity="0.14" stroke-width="2"/>
<path d="M144.739 44.2314L144.739 44.2314L144.733 44.2426C141.785 50.4255 140.327 57.6206 140.327 65.8011C140.327 73.982 141.785 81.221 144.731 87.4932L144.735 87.5015L144.739 87.5098C147.774 93.6742 151.872 98.4538 157.046 101.807L157.053 101.812C162.315 105.16 168.155 106.833 174.548 106.833C179.964 106.833 184.721 105.74 188.785 103.515C191.88 101.859 194.45 99.7629 196.483 97.2251V104.86V105.86H197.483H224.727H225.727V104.86V26.8811V25.8811H224.727H197.483H196.483V26.8811V34.5051C194.471 31.9751 191.95 29.8824 188.928 28.228C184.861 26.0006 180.055 24.9081 174.548 24.9081C168.155 24.9081 162.315 26.581 157.053 29.9294L157.053 29.9294L157.046 29.9339C151.872 33.2874 147.774 38.067 144.739 44.2314ZM192.583 54.6692L192.589 54.6754L192.594 54.6815C195.151 57.3236 196.483 60.988 196.483 65.8011C196.483 70.7127 195.148 74.421 192.594 77.0597L192.589 77.0658L192.583 77.0719C190.087 79.7395 187.017 81.0641 183.305 81.0641C179.496 81.0641 176.383 79.7362 173.894 77.0777C171.415 74.3397 170.127 70.6181 170.127 65.8011C170.127 60.8786 171.422 57.2213 173.877 54.6811L173.883 54.6752L173.888 54.6692C176.379 52.0069 179.493 50.6771 183.305 50.6771C187.017 50.6771 190.087 52.0017 192.583 54.6692Z" stroke="#BE9342" stroke-opacity="0.14" stroke-width="2"/>
<path d="M67.0312 39.632L67.3233 40.113H67.886H97.215H98.422L98.1976 38.9271C96.207 28.4053 91.0714 20.0704 82.7956 13.9825C74.5254 7.89865 64.1107 4.892 51.623 4.892C41.6533 4.892 32.8156 7.05628 25.1403 11.4141C17.4698 15.6764 11.4984 21.697 7.23933 29.4579L7.23728 29.4617C3.07061 37.1321 1 45.8716 1 55.654C1 65.5276 3.06994 74.358 7.23484 82.1198L7.2383 82.1263L7.24185 82.1327C11.5015 89.8 17.4715 95.8168 25.1362 100.17L25.1425 100.173L25.1489 100.177C32.9137 104.438 41.7939 106.555 51.762 106.555C59.9438 106.555 67.2706 105.097 73.7218 102.156L73.7219 102.156L73.7328 102.151C80.1361 99.1376 85.4376 95.3106 89.6152 90.6594C93.8554 86.0416 97.0723 81.0792 99.2521 75.7719L99.327 75.5894V75.392V48.982V47.982H98.327H47.453H46.453V48.982V68.581V69.581H47.453H73.2088C71.337 73.0322 68.9741 75.6351 66.1351 77.4312C62.9171 79.4671 59.0214 80.508 54.403 80.508C46.5246 80.508 40.6576 78.3852 36.6381 74.2832C32.704 70.0817 30.661 63.9257 30.661 55.654C30.661 48.3254 32.5571 42.6062 36.2477 38.386C40.0133 34.1849 45.1447 32.051 51.762 32.051C55.3443 32.051 58.3767 32.7224 60.8936 34.0242L60.8936 34.0243L60.9058 34.0304C63.5216 35.3383 65.5561 37.2024 67.0312 39.632Z" stroke="#BE9342" stroke-opacity="0.14" stroke-width="2"/>
</svg>
