<svg width="54" height="58" viewBox="0 0 54 58" fill="none" xmlns="http://www.w3.org/2000/svg">
<g clip-path="url(#clip0_300_1619)">
<path d="M36.8878 30.4702L38.1071 22.4848C38.2442 21.588 37.8029 20.7085 37.0288 20.3359C35.6851 19.6892 23.7987 14.0025 20.2912 13.4278C15.1271 12.5818 10.2418 16.3726 9.40123 21.8766C8.70578 26.43 11.0162 30.7125 14.7507 32.5489L15.6622 44.1149C15.7042 44.6484 15.944 45.1406 16.328 45.4826C16.5928 45.7187 16.9117 45.8699 17.248 45.925C17.3997 45.9497 17.5552 45.9552 17.711 45.9397L21.4935 45.5663C22.5377 45.4635 23.3134 44.4788 23.2262 43.3682L22.4475 33.4875C27.6858 33.2276 34.2564 32.3078 35.251 32.1655C36.0862 32.0459 36.7522 31.3555 36.8878 30.4702ZM21.335 43.5548L17.5525 43.9282L16.711 33.2469C16.8914 33.2878 17.0569 33.3629 17.2415 33.3932C18.0802 33.5303 19.2331 33.5729 20.5466 33.5531L21.335 43.5548ZM17.5469 31.3967C13.4091 30.7193 10.6002 26.5943 11.2741 22.1834C11.9475 17.773 15.8482 14.7462 19.9864 15.4241C23.3403 15.9733 36.2344 22.1773 36.2344 22.1773L35.0151 30.1635C35.0146 30.1639 21.6845 32.074 17.5469 31.3967Z" fill="#BE9342"/>
<path d="M23.4491 24.1777C23.8694 21.4252 22.1109 18.8422 19.5286 18.4193C16.9462 17.9966 14.5036 19.8915 14.0833 22.644C13.663 25.3964 15.4216 27.9795 18.0039 28.4024C20.5862 28.8251 23.0288 26.9302 23.4491 24.1777ZM18.3092 26.4057C16.7575 26.1518 15.7046 24.6048 15.957 22.9507C16.2093 21.2967 17.6723 20.1622 19.224 20.416C20.7758 20.6698 21.8286 22.2169 21.5763 23.8709C21.3235 25.5246 19.8611 26.6595 18.3092 26.4057Z" fill="#BE9342"/>
<path d="M49.7496 23.0943C49.3192 23.29 48.8306 23.4203 48.3413 23.3401C47.688 23.2334 47.2057 22.7598 46.6461 22.2113C45.9605 21.5382 45.1834 20.777 43.9634 20.5766C42.2986 20.3038 40.8117 21.2712 40.0702 21.8718L41.4876 23.2634C42.0224 22.8812 42.8399 22.439 43.658 22.5733C44.3112 22.68 44.794 23.154 45.3532 23.7021C46.0387 24.3752 46.8159 25.1364 48.0359 25.3368C49.2761 25.5397 50.4123 25.0524 51.224 24.5418L49.7496 23.0943Z" fill="#BE9342"/>
<path d="M48.5516 27.4385C48.1212 27.6342 47.6325 27.7645 47.1432 27.6843C46.49 27.5776 46.0076 27.104 45.448 26.5554C44.7625 25.8824 43.9853 25.1212 42.7653 24.9208C41.1005 24.648 39.6136 25.6154 38.8721 26.2159L40.2895 27.6075C40.8243 27.2254 41.6424 26.7837 42.4604 26.9179C43.1136 27.0246 43.5964 27.4986 44.1555 28.0467C44.8411 28.7198 45.6182 29.481 46.8383 29.6814C48.0781 29.8838 49.2142 29.3965 50.026 28.886L48.5516 27.4385Z" fill="#BE9342"/>
<path d="M47.3535 31.7827C46.923 31.9784 46.4344 32.1087 45.945 32.0285C45.2918 31.9217 44.8094 31.4481 44.2499 30.8996C43.5643 30.2265 42.7871 29.4654 41.5671 29.2649C39.9023 28.9921 38.4155 29.9595 37.6739 30.5601L39.0914 31.9517C39.6262 31.5696 40.4442 31.1279 41.2622 31.2621C41.9154 31.3688 42.3982 31.8428 42.9574 32.3909C43.6429 33.064 44.4201 33.8252 45.6401 34.0256C46.8799 34.228 48.016 33.7407 48.8278 33.2302L47.3535 31.7827Z" fill="#BE9342"/>
</g>
<defs>
<clipPath id="clip0_300_1619">
<rect width="38.9229" height="39.4672" fill="white" transform="matrix(0.713573 0.70058 -0.655435 0.755252 26.2272 0)"/>
</clipPath>
</defs>
</svg>
