<svg width="41" height="41" viewBox="0 0 41 41" fill="none" xmlns="http://www.w3.org/2000/svg">
<path d="M32.9664 30.8317C33.2276 32.0672 34.4523 32.8643 35.6878 32.603C36.9232 32.3418 37.7203 31.1171 37.4591 29.8817C37.1978 28.6462 35.9732 27.8491 34.7377 28.1103C33.5022 28.3716 32.7051 29.5962 32.9664 30.8317ZM36.3359 30.1192C36.4666 30.7369 36.068 31.3492 35.4502 31.4799C34.8325 31.6105 34.2202 31.212 34.0895 30.5942C33.9589 29.9764 34.3574 29.3641 34.9752 29.2335C35.593 29.1028 36.2053 29.5014 36.3359 30.1192Z" fill="#BE9342"/>
<path d="M24.5574 3.27476L11.8667 22.7723C11.6223 22.5802 11.3633 22.4567 11.1116 22.3699L10.2303 22.0869C9.47331 21.8363 8.6633 21.8903 8.04878 22.3136C7.07679 22.9885 6.70841 24.2985 6.9848 25.8828C7.13674 26.7853 7.5032 27.7194 8.01475 28.5294C7.98113 28.5434 7.94449 28.5548 7.90369 28.5634C7.73521 28.599 7.611 28.5666 7.53111 28.4662C7.1229 28.2005 6.63797 28.127 6.18874 28.222C5.68331 28.3289 5.33772 28.6366 5.07202 29.0448C4.80632 29.453 4.77711 29.8699 4.87212 30.3192C5.03514 30.8127 5.29863 31.2264 5.76305 31.4802C7.2682 32.3729 9.10526 32.1551 10.3906 31.0576C15.5066 35.4437 25.0577 38.65 36.9901 34.3225C38.0777 33.9165 38.9136 33.1531 39.3975 32.112C39.8047 31.2632 39.9074 30.3614 39.7173 29.4628C39.6817 29.2943 39.6461 29.1259 39.5306 28.8569C39.1245 27.7693 38.3611 26.9334 37.32 26.4495C36.2789 25.9657 35.1525 25.9105 34.065 26.3165C28.5872 28.3327 20.4283 28.138 14.6569 24.8099L17.7288 20.0905L19.0083 20.9233C19.0499 20.9816 19.1037 21.0338 19.1694 21.0766C19.2351 21.1193 19.3046 21.1473 19.3747 21.1618L21.6068 22.6146L33.4627 4.32503L30.1171 2.09897C28.2802 0.903387 25.753 1.43781 24.5574 3.27476ZM9.49875 30.2795C8.59477 30.9987 7.32366 31.0915 6.315 30.4834C6.17891 30.3948 6.03101 30.2501 5.98351 30.0254C5.95975 29.9131 5.99214 29.789 6.08073 29.6529C6.16931 29.5168 6.26971 29.4369 6.43819 29.4013C6.55053 29.3775 6.73088 29.398 6.7989 29.4423C7.20711 29.708 7.63583 29.7934 8.08513 29.6984C8.30974 29.6509 8.46635 29.5591 8.67914 29.4554C8.74715 29.4997 8.82711 29.6001 8.89512 29.6444L9.33896 30.0786C9.36265 30.1909 9.43066 30.2352 9.49875 30.2795ZM34.4829 27.4603C35.2454 27.1816 36.1234 27.172 36.848 27.5468C37.6288 27.9097 38.1763 28.5566 38.4549 29.3191C38.7335 30.0816 38.7431 30.9596 38.3683 31.6842C38.0054 32.465 37.3585 33.0125 36.596 33.2911C25.1619 37.4044 15.9975 34.4115 11.1631 30.2429L11.1867 30.2159L10.7547 29.8378C10.5387 29.6488 10.3789 29.4479 10.1629 29.2589L9.71907 28.8247C9.57111 28.68 9.41133 28.4792 9.23961 28.2221L8.92101 27.7949C8.56136 27.1814 8.28665 26.4904 8.14355 25.8137L8.13168 25.7576C8.06906 25.1841 7.90825 23.8687 8.73552 23.3417C9.04872 23.1581 9.45369 23.1312 9.89435 23.2727L10.7756 23.5557C10.956 23.5762 11.1601 23.7091 11.308 23.8538C17.2432 29.1698 27.7772 29.8757 34.4829 27.4603ZM31.9022 4.71375L21.2742 21.0422L20.2765 20.4174L30.9157 4.07166L31.9022 4.71375ZM29.5209 3.16389L29.9632 3.45175L29.6311 3.96201L27.3285 4.44893C26.9916 4.52019 26.8144 4.7923 26.8857 5.12926C26.957 5.46621 27.2291 5.64333 27.566 5.57207L28.7454 5.32267L27.8597 6.6834L25.501 7.18219C25.1641 7.25345 24.9869 7.52556 25.0582 7.86252C25.1295 8.19947 25.4016 8.37659 25.7385 8.30533L26.974 8.04406L26.0883 9.40479L23.7296 9.90359C23.3927 9.97484 23.2156 10.247 23.2868 10.5839C23.3581 10.9209 23.6302 11.098 23.9671 11.0267L25.2026 10.7655L24.3169 12.1262L21.9583 12.625C21.6213 12.6962 21.4442 12.9683 21.5154 13.3053C21.5867 13.6423 21.8588 13.8194 22.1958 13.7481L23.4313 13.4868L19.3129 19.8141L17.3518 18.5861L13.6923 24.2084C13.3764 23.9958 13.0696 23.7723 12.7724 23.5384L25.5334 4.00713C26.4312 2.7025 28.2283 2.32246 29.5209 3.16389Z" fill="#BE9342"/>
<path d="M10.8922 24.939C9.8252 25.1647 9.11662 26.2532 9.34227 27.3203C9.56792 28.3874 10.6565 29.0959 11.7235 28.8702C12.7905 28.6446 13.4991 27.556 13.2735 26.489C13.0478 25.4219 11.9592 24.7134 10.8922 24.939ZM12.1502 26.7265C12.2453 27.1758 11.9353 27.652 11.486 27.747C11.0367 27.842 10.5605 27.5321 10.4655 27.0828C10.3705 26.6335 10.6804 26.1573 11.1297 26.0622C11.579 25.9672 12.0552 26.2772 12.1502 26.7265Z" fill="#BE9342"/>
</svg>
