<svg width="35" height="35" viewBox="0 0 35 35" fill="none" xmlns="http://www.w3.org/2000/svg">
<g clip-path="url(#clip0_337_764)">
<path d="M14.1325 28.2261C13.9928 27.3607 13.5245 26.6015 12.8138 26.0882C12.1031 25.575 11.235 25.3692 10.3697 25.5089C9.50428 25.6486 8.74502 26.1169 8.23184 26.8277C7.71867 27.5383 7.51298 28.4063 7.65257 29.2717C7.79216 30.1371 8.26055 30.8963 8.97128 31.4096C9.53662 31.8178 10.2015 32.0315 10.8855 32.0315C11.0614 32.0315 11.2384 32.0174 11.4154 31.9889C12.2808 31.8492 13.04 31.3809 13.5533 30.6701C14.0664 29.9595 14.2721 29.0914 14.1325 28.2261ZM12.2936 29.7607C12.0234 30.1349 11.6236 30.3815 11.1679 30.4551C10.7123 30.5287 10.2551 30.4203 9.8808 30.15C9.50654 29.8798 9.2599 29.48 9.18641 29.0242C9.11293 28.5685 9.22121 28.1114 9.49143 27.7372C9.76165 27.3629 10.1614 27.1163 10.6172 27.0428C10.7104 27.0278 10.8036 27.0204 10.8962 27.0204C11.2564 27.0204 11.6066 27.133 11.9044 27.3479C12.2786 27.6181 12.5252 28.0179 12.5988 28.4736C12.6723 28.9294 12.5638 29.3864 12.2936 29.7607Z" fill="#BE9342"/>
<path d="M29.3112 25.2881C28.1241 23.5066 26.1207 22.467 23.9976 22.5019L22.0032 19.8113L26.7416 13.7827C29.4972 10.2497 29.9499 5.39423 27.8948 1.41285L27.3826 0.42048C27.2567 0.176506 27.0113 0.0171603 26.7372 0.00130096C26.4631 -0.0145584 26.201 0.115461 26.0478 0.343234L17.5186 13.0232L8.95128 0.341935C8.79768 0.114641 8.53545 -0.0142849 8.26195 0.00130096C7.98817 0.0174337 7.7431 0.176779 7.61732 0.42048L7.10503 1.41285C5.04995 5.3943 5.50262 10.2497 8.25784 13.7821L12.9449 19.8026L10.9959 22.5018C8.87745 22.4673 6.87459 23.5083 5.6887 25.2881C3.90521 27.9649 4.4786 31.6306 6.99409 33.6336C8.11771 34.5283 9.47067 34.9999 10.8757 34.9999C11.1628 34.9999 11.4522 34.9802 11.742 34.9405C13.4516 34.7057 14.9493 33.8061 15.9591 32.4076C17.1525 30.7548 17.4562 28.6005 16.7896 26.6862L17.4973 25.7059L18.2097 26.6874C17.5437 28.6015 17.8475 30.7552 19.0408 32.4076C20.0506 33.8062 21.5483 34.7057 23.2578 34.9405C23.5478 34.9803 23.8371 35 24.1241 35C25.529 35 26.8822 34.5283 28.0057 33.6337C30.5214 31.6307 31.0948 27.9649 29.3112 25.2881ZM9.48339 12.8271C7.13921 9.82186 6.72147 5.70998 8.39832 2.29872L16.5832 14.4138L15.8608 15.4877L13.8648 18.4552L9.48339 12.8271ZM15.2829 26.1188C15.1227 26.3406 15.091 26.6305 15.1997 26.8819C15.8541 28.3955 15.6624 30.1643 14.6995 31.498C13.9406 32.5489 12.8153 33.2248 11.5305 33.4012C10.2467 33.5777 8.97938 33.2285 7.96185 32.4181C6.0724 30.9138 5.64194 28.1603 6.98158 26.1497C7.85876 24.8333 9.3302 24.0547 10.8943 24.0547C11.0321 24.0547 11.171 24.0608 11.31 24.0731C11.5829 24.0971 11.8479 23.976 12.0081 23.754L13.9542 21.0588L14.6278 21.5453L17.229 23.4236L15.2829 26.1188ZM18.1638 22.1822L17.4091 21.6372L16.7634 21.171L25.062 9.76628C25.3144 9.41936 25.2379 8.93353 24.8909 8.68108C24.544 8.42863 24.0581 8.50519 23.8057 8.85211L15.5039 20.2615L14.8432 19.7844L15.3169 19.0802L18.1647 14.8465C18.1647 14.8465 18.1647 14.8463 18.1648 14.8461L26.6029 2.30152C28.2784 5.71231 27.8602 9.82254 25.5183 12.8249L20.4157 19.3171C20.4156 19.3172 20.4155 19.3173 20.4153 19.3175L18.1638 22.1822ZM27.0381 32.4181C26.0206 33.2284 24.7531 33.5775 23.4694 33.4012C22.1847 33.2248 21.0594 32.5489 20.3005 31.498C19.3375 30.1643 19.1458 28.3955 19.8003 26.8819C19.9092 26.63 19.8771 26.3394 19.7159 26.1173L18.4549 24.3801L18.934 23.7166L21.0081 21.0777L22.9976 23.7619C23.1586 23.9791 23.4205 24.0971 23.6901 24.0732C25.4058 23.9215 27.064 24.7173 28.0184 26.1497C29.358 28.1603 28.9275 30.9138 27.0381 32.4181Z" fill="#BE9342"/>
<path d="M26.7683 26.8277C26.255 26.117 25.4957 25.6487 24.6303 25.509C23.7648 25.3694 22.8969 25.5751 22.1863 26.0883C21.4756 26.6015 21.0072 27.3607 20.8676 28.2262C20.7279 29.0916 20.9336 29.9596 21.4468 30.6702C21.96 31.3809 22.7193 31.8493 23.5847 31.9889C23.7618 32.0175 23.9387 32.0316 24.1146 32.0316C24.7984 32.0316 25.4635 31.8179 26.0288 31.4096C26.7395 30.8965 27.2079 30.1372 27.3475 29.2718C27.4872 28.4063 27.2815 27.5383 26.7683 26.8277ZM25.8136 29.0242C25.7401 29.48 25.4934 29.8798 25.1192 30.15C24.745 30.4202 24.288 30.5287 23.8322 30.4551C23.3764 30.3815 22.9766 30.1349 22.7064 29.7607C22.4362 29.3864 22.3278 28.9294 22.4014 28.4736C22.475 28.0179 22.7216 27.6181 23.0958 27.3479C23.3936 27.1329 23.7436 27.0204 24.1038 27.0204C24.1963 27.0204 24.2896 27.0278 24.3828 27.0428C24.8386 27.1163 25.2384 27.363 25.5086 27.7372C25.7788 28.1114 25.8873 28.5686 25.8136 29.0242Z" fill="#BE9342"/>
<path d="M26.5 7.29213C26.4899 7.24318 26.4751 7.19424 26.4557 7.14686C26.4363 7.10024 26.4122 7.05519 26.3843 7.01322C26.3556 6.9705 26.3229 6.93085 26.2872 6.89516C26.2515 6.85941 26.2119 6.8268 26.1691 6.79809C26.1272 6.77013 26.0821 6.74607 26.0355 6.72666C25.9881 6.70724 25.9399 6.69248 25.8902 6.68236C25.79 6.66219 25.6867 6.66219 25.5865 6.68236C25.5368 6.69248 25.4879 6.70724 25.4413 6.72666C25.3939 6.74607 25.3488 6.77013 25.3069 6.79809C25.2641 6.8268 25.2245 6.85948 25.1888 6.89516C25.1531 6.93091 25.1205 6.9705 25.0925 7.01322C25.0645 7.05519 25.0405 7.10024 25.0211 7.14686C25.0016 7.19424 24.9869 7.24318 24.9768 7.29213C24.9666 7.34264 24.9612 7.39391 24.9612 7.44436C24.9612 7.49481 24.9667 7.54615 24.9768 7.59585C24.9869 7.64554 25.0016 7.69449 25.0211 7.74111C25.0405 7.78848 25.0645 7.83353 25.0925 7.8755C25.1205 7.91823 25.1531 7.95788 25.1888 7.99356C25.2246 8.02931 25.2641 8.06192 25.3069 8.08988C25.3488 8.11784 25.3939 8.1419 25.4413 8.16131C25.4879 8.18073 25.5368 8.19549 25.5865 8.20561C25.6362 8.21573 25.6875 8.22113 25.738 8.22113C25.7893 8.22113 25.8398 8.21566 25.8902 8.20561C25.9399 8.19549 25.9881 8.18073 26.0355 8.16131C26.0821 8.1419 26.1272 8.11784 26.1691 8.08988C26.2119 8.06192 26.2515 8.02931 26.2872 7.99356C26.323 7.95781 26.3556 7.91823 26.3843 7.8755C26.4122 7.83353 26.4363 7.78848 26.4557 7.74111C26.4751 7.69449 26.4899 7.64554 26.5 7.59585C26.5101 7.54615 26.5148 7.49488 26.5148 7.44436C26.5148 7.39384 26.5101 7.34264 26.5 7.29213Z" fill="#BE9342"/>
</g>
<defs>
<clipPath id="clip0_337_764">
<rect width="35" height="35" fill="white"/>
</clipPath>
</defs>
</svg>
