<svg width="846" height="108" viewBox="0 0 846 108" fill="none" xmlns="http://www.w3.org/2000/svg">
<path d="M841.183 42.4293V41.4293H840.183H812.553V26.8998H844H845V25.8998V3.33334V2.33334H844H786.614H785.614V3.33334V104.667V105.667H786.614H844H845V104.667V82.1002V81.1002H844H812.553V64.8459H840.183H841.183V63.8459V42.4293Z" stroke="#BE9342" stroke-opacity="0.14" stroke-width="2"/>
<path d="M638.773 26.6699L638.771 26.6737C635.078 34.6579 633.245 43.7496 633.245 53.9275C633.245 64.2008 635.078 73.3876 638.769 81.4671L638.769 81.4672L638.775 81.4794C642.554 89.4648 647.894 95.7511 654.797 100.307L654.806 100.313C661.722 104.778 669.665 107 678.6 107C689.941 107 699.537 103.541 707.32 96.5926L707.325 96.5878C715.095 89.5523 720.072 80.0601 722.296 68.1812L722.517 66.9972H721.313H694.649H693.981L693.725 67.6148C692.182 71.3425 690.056 74.1271 687.373 76.0294L687.367 76.0335L687.362 76.0377C684.766 77.9335 681.733 78.8912 678.221 78.8912C672.816 78.8912 668.522 76.7257 665.255 72.3404C662.047 67.824 660.392 61.718 660.392 53.9275C660.392 46.2305 662.048 40.2224 665.256 35.8042C668.527 31.3177 672.821 29.1088 678.221 29.1088C681.733 29.1088 684.766 30.0665 687.362 31.9623L687.367 31.9665L687.373 31.9706C690.056 33.8729 692.182 36.6575 693.725 40.3852L693.981 41.0028H694.649H721.313H722.517L722.296 39.8188C720.072 27.9408 715.095 18.4947 707.322 11.5546C699.54 4.50905 689.944 1 678.6 1C669.662 1 661.718 3.27146 654.802 7.83482C647.892 12.2973 642.551 18.588 638.773 26.6699Z" stroke="#BE9342" stroke-opacity="0.14" stroke-width="2"/>
<path d="M569.944 3.33334V2.33334H568.944H545.198H544.198V3.33334V104.667V105.667H545.198H568.944H569.944V104.667V3.33334Z" stroke="#BE9342" stroke-opacity="0.14" stroke-width="2"/>
<path d="M484.811 3.62263L485.201 2.33334H483.854H457.515H456.752L456.551 3.06919L437.475 72.7199L418.278 3.06764L418.076 2.33334H417.314H390.849H389.501L389.892 3.62372L420.642 104.957L420.857 105.667H421.599H453.231H453.973L454.188 104.956L484.811 3.62263Z" stroke="#BE9342" stroke-opacity="0.14" stroke-width="2"/>
<path d="M304.723 105.097L304.995 105.667H305.626H333.464H335.098L334.354 104.211L314.66 65.6957C320.76 63.3904 325.462 59.6996 328.713 54.6115C332.216 49.1641 333.955 42.8879 333.955 35.8175C333.955 29.5442 332.654 23.8744 330.031 18.8304C327.397 13.6699 323.486 9.64712 318.321 6.77484C313.137 3.79619 306.857 2.33334 299.525 2.33334H260.247H259.247V3.33334V104.667V105.667H260.247H285.161H286.161V104.667V68.2955H287.199L304.723 105.097ZM304.241 30.4431L304.258 30.4618L304.275 30.4796C305.825 32.0652 306.66 34.3255 306.66 37.3986C306.66 40.6939 305.851 43.0484 304.386 44.6227C302.941 46.1746 300.707 47.035 297.491 47.035H286.161V27.9059H297.491C300.598 27.9059 302.788 28.8 304.241 30.4431Z" stroke="#BE9342" stroke-opacity="0.14" stroke-width="2"/>
<path d="M192.129 42.4293V41.4293H191.129H163.499V26.8998H194.946H195.946V25.8998V3.33334V2.33334H194.946H137.56H136.56V3.33334V104.667V105.667H137.56H194.946H195.946V104.667V82.1002V81.1002H194.946H163.499V64.8459H191.129H192.129V63.8459V42.4293Z" stroke="#BE9342" stroke-opacity="0.14" stroke-width="2"/>
<path d="M13.0546 98.4178L13.0611 98.4232C19.9064 104.164 28.627 107 39.1405 107C46.0769 107 52.128 105.581 57.2569 102.702C62.4476 99.8354 66.4067 95.916 69.1047 90.948C71.8808 85.9908 73.2588 80.4032 73.2588 74.2102C73.2588 68.1203 71.8832 63.0178 69.0559 58.9752C66.3809 54.9371 63.1285 51.8079 59.2937 49.6148C55.6211 47.3723 50.9528 45.1456 45.3038 42.9302C41.5471 41.4043 38.7281 40.1725 36.8325 39.232C34.9916 38.2245 33.4479 37.0916 32.19 35.8394C31.1053 34.5897 30.5702 33.1537 30.5702 31.4882C30.5702 29.3523 31.1134 27.8569 32.0608 26.8519C33.0313 25.8225 34.271 25.296 35.8665 25.296C38.0713 25.296 39.7745 25.9813 41.0725 27.2992L41.0819 27.3088L41.0917 27.3182C42.4344 28.6098 43.2242 30.6199 43.3038 33.5294L43.3304 34.5021H44.3034H71.1255H72.1685L72.1246 33.46C71.6961 23.2778 68.2985 15.2797 61.8438 9.59733C55.4895 3.83323 47.0032 1 36.4961 1C29.9886 1 24.1298 2.22327 18.9405 4.69318C13.7316 7.17241 9.63789 10.8514 6.681 15.7176C3.71183 20.5077 2.25185 26.2596 2.25185 32.9267C2.25185 39.4805 3.57871 44.9128 6.31561 49.1485L6.32259 49.1593L6.32986 49.17C9.08495 53.2023 12.2923 56.3313 15.9605 58.5262L15.9736 58.534L15.9868 58.5414C19.6542 60.5873 24.4039 62.7165 30.2218 64.9318L30.2217 64.9318L30.2314 64.9354C35.6716 66.9431 39.5257 68.7324 41.8582 70.2943C44.0107 71.7356 45.0664 73.7229 45.0664 76.3679C45.0664 78.4261 44.4033 79.9587 43.1385 81.0839C41.9282 82.1395 40.3316 82.704 38.259 82.704C35.9787 82.704 34.1899 81.9763 32.8035 80.5593C31.445 79.1708 30.5598 76.8577 30.3158 73.4202L30.2499 72.491H29.3184H3H1.95065L2.00116 73.5391C2.51526 84.2078 6.1711 92.5453 13.0546 98.4178Z" stroke="#BE9342" stroke-opacity="0.14" stroke-width="2"/>
</svg>
