<svg width="498" height="142" viewBox="0 0 498 142" fill="none" xmlns="http://www.w3.org/2000/svg">
<path d="M447.927 100.884L447.936 100.888C452.03 103.13 456.822 104.232 462.278 104.232C468.716 104.232 474.552 102.548 479.761 99.1727C485.067 95.7951 489.198 90.9784 492.163 84.7626C495.226 78.4436 496.742 71.1499 496.742 62.9071C496.742 54.6658 495.227 47.4169 492.162 41.1885C489.197 34.9742 485.066 30.1585 479.761 26.7815C474.552 23.4066 468.716 21.7224 462.278 21.7224C456.822 21.7224 452.03 22.8241 447.936 25.0657C444.887 26.7354 442.343 28.8481 440.316 31.4032V23.7025V22.7025H439.316H411.872H410.872V23.7025V139.776V140.776H411.872H439.316H440.316V139.776V94.4856C442.384 97.0649 444.924 99.1984 447.927 100.884ZM462.948 51.6889L462.96 51.701L462.971 51.7128C465.533 54.2746 466.879 57.9564 466.879 62.9071C466.879 67.7553 465.537 71.5035 462.949 74.2645L462.948 74.2653C460.433 76.9539 457.338 78.289 453.597 78.289C449.858 78.289 446.712 76.9548 444.101 74.2592C441.617 71.6009 440.316 67.861 440.316 62.9071C440.316 58.0522 441.614 54.3565 444.101 51.695C446.712 48.9994 449.858 47.6652 453.597 47.6652C457.338 47.6652 460.433 49.0003 462.948 51.6889Z" stroke="#BE9342" stroke-opacity="0.14" stroke-width="2"/>
<path d="M337.792 99.2147L337.797 99.2175C344.209 102.567 351.419 104.232 359.403 104.232C367.386 104.232 374.596 102.567 381.008 99.2175C387.427 95.8641 392.467 91.0654 396.109 84.8358C399.851 78.5017 401.707 71.1813 401.707 62.9071C401.707 54.6343 399.852 47.3586 396.107 41.1151C392.466 34.8879 387.428 30.0908 381.011 26.738C374.689 23.3863 367.525 21.7224 359.543 21.7224C351.559 21.7224 344.349 23.3869 337.937 26.7366L337.937 26.7366L337.932 26.7395C331.608 30.0932 326.574 34.889 322.841 41.1101L322.841 41.1101L322.835 41.1199C319.185 47.3629 317.378 54.6367 317.378 62.9071C317.378 71.2685 319.184 78.5896 322.835 84.8343C326.475 91.0608 331.465 95.8598 337.792 99.2147ZM368.182 74.5582L368.18 74.5595C365.853 77.1454 362.951 78.429 359.403 78.429C355.855 78.429 353.007 77.1466 350.777 74.5736C348.567 72.023 347.381 68.1889 347.381 62.9071C347.381 57.7321 348.607 53.9478 350.905 51.3946C353.237 48.8028 356.095 47.5252 359.543 47.5252C362.99 47.5252 365.848 48.8028 368.18 51.3946L368.186 51.4014L368.193 51.408C370.576 53.9615 371.844 57.7405 371.844 62.9071C371.844 68.0711 370.577 71.9063 368.182 74.5582Z" stroke="#BE9342" stroke-opacity="0.14" stroke-width="2"/>
<path d="M313.705 3.54016V2.54016H312.705H232.896H231.896V3.54016V25.3827V26.3827H232.896H257.939V102.252V103.252H258.939H286.382H287.382V102.252V26.3827H312.705H313.705V25.3827V3.54016Z" stroke="#BE9342" stroke-opacity="0.14" stroke-width="2"/>
<path d="M196.498 103.252H197.498V102.252V56.4664C197.498 46.0265 194.79 37.6456 189.266 31.4415C183.732 25.1316 176.256 22.0025 166.955 22.0025C161.493 22.0025 156.613 23.1528 152.342 25.4808C149.053 27.2011 146.272 29.3645 144.012 31.9726V23.7026V22.7026H143.012H115.569H114.569V23.7026V102.252V103.252H115.569H143.012H144.012V102.252V60.1068C144.012 55.7993 145.13 52.5697 147.246 50.285L147.252 50.2784L147.258 50.2716C149.369 47.9076 152.297 46.6851 156.173 46.6851C159.847 46.6851 162.688 47.8971 164.808 50.2716L164.814 50.2784L164.821 50.285C166.936 52.5697 168.055 55.7993 168.055 60.1068V102.252V103.252H169.055H196.498Z" stroke="#BE9342" stroke-opacity="0.14" stroke-width="2"/>
<path d="M26.7102 97.6612L26.7182 97.6657C34.6206 102.045 43.2828 104.232 52.6859 104.232C62.0889 104.232 70.7512 102.045 78.6536 97.6657L78.6616 97.6612C86.562 93.1875 92.804 87.0411 97.374 79.2341L97.3766 79.2295C101.953 71.317 104.232 62.4141 104.232 52.5459C104.232 42.6786 101.953 33.8208 97.3751 25.9996C92.8054 18.0988 86.5616 11.9493 78.6557 7.56725C70.8431 3.18515 62.1794 1 52.6859 1C43.2828 1 34.6206 3.18643 26.7182 7.56609C18.8122 11.9477 12.5226 18.096 7.85964 25.9945L7.85777 25.9977C3.27919 33.8194 1 42.6778 1 52.5459C1 62.4141 3.27921 71.317 7.85512 79.2295L7.8587 79.2357L7.86236 79.2419C12.525 87.0446 18.8116 93.1885 26.7102 97.6612ZM68.4638 70.2199L68.4637 70.2198L68.4562 70.2284C64.6618 74.5523 59.4468 76.7488 52.6859 76.7488C45.8222 76.7488 40.5617 74.5925 36.7721 70.3645C32.9606 66.0189 31.0033 60.1167 31.0033 52.5459C31.0033 44.8746 32.9641 38.9781 36.7688 34.731L36.7688 34.731L36.7756 34.7233C40.5673 30.4025 45.8269 28.2029 52.6859 28.2029C59.4468 28.2029 64.6618 30.3994 68.4562 34.7233L68.4633 34.7315L68.4706 34.7394C72.3642 38.9869 74.3685 44.8803 74.3685 52.5459C74.3685 60.0164 72.3684 65.8715 68.4638 70.2199Z" stroke="#BE9342" stroke-opacity="0.14" stroke-width="2"/>
</svg>
