<svg width="30" height="30" viewBox="0 0 30 30" fill="none" xmlns="http://www.w3.org/2000/svg">
<path d="M30 12H0V25.5C0 26.6935 0.474106 27.8381 1.31802 28.682C2.16193 29.5259 3.30653 30 4.5 30H25.5C26.6935 30 27.8381 29.5259 28.682 28.682C29.5259 27.8381 30 26.6935 30 25.5V12ZM7.5 9C7.10218 9 6.72064 8.84196 6.43934 8.56066C6.15804 8.27936 6 7.89782 6 7.5V1.5C6 1.10218 6.15804 0.720644 6.43934 0.43934C6.72064 0.158035 7.10218 0 7.5 0C7.89782 0 8.27936 0.158035 8.56066 0.43934C8.84196 0.720644 9 1.10218 9 1.5V7.5C9 7.89782 8.84196 8.27936 8.56066 8.56066C8.27936 8.84196 7.89782 9 7.5 9ZM22.5 9C22.1022 9 21.7206 8.84196 21.4393 8.56066C21.158 8.27936 21 7.89782 21 7.5V1.5C21 1.10218 21.158 0.720644 21.4393 0.43934C21.7206 0.158035 22.1022 0 22.5 0C22.8978 0 23.2794 0.158035 23.5607 0.43934C23.842 0.720644 24 1.10218 24 1.5V7.5C24 7.89782 23.842 8.27936 23.5607 8.56066C23.2794 8.84196 22.8978 9 22.5 9Z" fill="#EBEBEB"/>
<path d="M25.5 3H24V7.5C24 7.89782 23.842 8.27936 23.5607 8.56066C23.2794 8.84196 22.8978 9 22.5 9C22.1022 9 21.7206 8.84196 21.4393 8.56066C21.158 8.27936 21 7.89782 21 7.5V3H9V7.5C9 7.89782 8.84196 8.27936 8.56066 8.56066C8.27936 8.84196 7.89782 9 7.5 9C7.10218 9 6.72064 8.84196 6.43934 8.56066C6.15804 8.27936 6 7.89782 6 7.5V3H4.5C3.30653 3 2.16193 3.47411 1.31802 4.31802C0.474106 5.16193 0 6.30653 0 7.5V12H30V7.5C30 6.30653 29.5259 5.16193 28.682 4.31802C27.8381 3.47411 26.6935 3 25.5 3Z" fill="#BE9342"/>
<path d="M6.8441 25.175C8.6841 23.795 10.1041 22.56 11.1041 21.47C12.1141 20.37 12.6191 19.295 12.6191 18.245C12.6191 17.555 12.4441 17.005 12.0941 16.595C11.7541 16.175 11.1941 15.965 10.4141 15.965C9.6541 15.965 9.0641 16.205 8.6441 16.685C8.2341 17.155 8.0041 17.785 7.9541 18.575H6.9341C6.9941 17.465 7.3341 16.605 7.9541 15.995C8.5841 15.375 9.4041 15.065 10.4141 15.065C11.3841 15.065 12.1691 15.34 12.7691 15.89C13.3691 16.43 13.6691 17.2 13.6691 18.2C13.6691 19.41 13.1641 20.585 12.1541 21.725C11.1541 22.855 9.9191 23.96 8.4491 25.04H13.9991V25.925H6.8441V25.175ZM22.4181 16.145H16.9281V19.985C17.1781 19.635 17.5431 19.35 18.0231 19.13C18.5031 18.9 19.0231 18.785 19.5831 18.785C20.4031 18.785 21.0731 18.955 21.5931 19.295C22.1131 19.625 22.4881 20.06 22.7181 20.6C22.9481 21.13 23.0631 21.7 23.0631 22.31C23.0631 23.01 22.9281 23.645 22.6581 24.215C22.3981 24.775 21.9931 25.22 21.4431 25.55C20.9031 25.88 20.2281 26.045 19.4181 26.045C18.3881 26.045 17.5531 25.78 16.9131 25.25C16.2731 24.71 15.8831 23.985 15.7431 23.075H16.7781C16.9081 23.735 17.2081 24.245 17.6781 24.605C18.1481 24.965 18.7281 25.145 19.4181 25.145C20.2881 25.145 20.9431 24.89 21.3831 24.38C21.8331 23.86 22.0581 23.175 22.0581 22.325C22.0581 21.495 21.8331 20.85 21.3831 20.39C20.9331 19.92 20.2881 19.685 19.4481 19.685C18.8681 19.685 18.3581 19.82 17.9181 20.09C17.4781 20.36 17.1531 20.725 16.9431 21.185H15.9531V15.23H22.4181V16.145Z" fill="black"/>
</svg>
